<?xml version="1.0" encoding="utf-8"?>
<!-- Generator: Adobe Illustrator 15.1.0, SVG Export Plug-In . SVG Version: 6.00 Build 0)  -->
<!DOCTYPE svg PUBLIC "-//W3C//DTD SVG 1.1//EN" "http://www.w3.org/Graphics/SVG/1.1/DTD/svg11.dtd">
<svg version="1.1" xmlns="http://www.w3.org/2000/svg" xmlns:xlink="http://www.w3.org/1999/xlink" x="0px" y="0px"
	 width="237.984px" height="206.202px" viewBox="0 0 237.984 206.202" enable-background="new 0 0 237.984 206.202"
	 xml:space="preserve">
<g id="Calque_1" display="none">
	<g display="inline">
		<rect x="17.725" y="172.135" fill="#F8BD88" width="200.555" height="26.26"/>
		<path fill="#F8BD88" d="M118,7.806c-55.379,0-100.275,44.896-100.275,100.278h200.555C218.279,52.703,173.385,7.806,118,7.806z"/>
		<path fill="#683B11" d="M218.279,160.665c0,6.334-5.137,11.471-11.471,11.471H29.193c-6.334,0-11.469-5.137-11.469-11.471v-8.084
			c0-6.334,5.135-11.471,11.469-11.471h177.615c6.334,0,11.471,5.137,11.471,11.471V160.665z"/>
		<path fill="#613710" d="M218.279,127.639c0,6.334-5.137,11.471-11.471,11.471H29.193c-6.334,0-11.469-5.137-11.469-11.471v-8.084
			c0-6.334,5.135-11.471,11.469-11.471h177.615c6.334,0,11.471,5.137,11.471,11.471V127.639z"/>
		<polygon fill="#F8B133" points="96.971,141.11 204.734,141.11 150.85,194.993 		"/>
		<g>
			<path fill="#44A300" d="M212.779,152.013c-5.053,0.001-8.555-2.692-12.004-5.953c-2.949-2.789-5.064-4.81-10.418-4.661
				l-0.152,0.002c-3.031,0-6.199,1.348-9.867,2.908c-4.465,1.899-9.523,4.051-15.506,4.081c-3.117,0.132-6.275,0.441-9.33,0.741
				c-8.885,0.871-18.064,1.771-27.195-1.564c-5.777-1.955-9.354-3.344-11.724-4.351c-1.243-0.527-2.789-1.054-3.106-1.054
				c-0.001,0-0.001,0-0.002,0c-0.589,0-2.564,0.544-4.85,1.317c-2.333,0.79-5.528,1.808-9.997,3.161l-0.137,0.007
				c-9.993,2.758-14.731,2.934-22.581,3.252c-2.753,0.111-5.874,0.229-9.837,0.486c-8.255,0.65-16.168-2.194-23.155-4.704
				c-12.002-4.309-18.573-6.194-25.171,1.671l-8.75-7.343c12.021-14.329,26.304-9.201,37.781-5.081
				c6.477,2.325,12.591,4.524,18.476,4.058c4.181-0.271,7.375-0.4,10.193-0.516c7.489-0.303,11.258-0.456,19.938-2.848
				c4.256-1.29,7.329-2.331,9.576-3.092c7.776-2.635,9.338-2.824,16.088,0.042c2.354,0.999,5.577,2.368,10.985,4.196l0.143,0.051
				c6.697,2.464,13.885,1.76,22.211,0.943c3.25-0.318,6.609-0.647,10.084-0.789l0.234-0.006c3.711,0,7.33-1.539,11.162-3.17
				c4.393-1.869,8.934-3.801,14.26-3.819c10.018-0.233,15.117,4.585,18.498,7.783c2.016,1.907,2.938,2.692,3.961,2.788
				c1.104,0.104,3.873-0.343,10.006-4.488l6.396,9.462C222.025,150.231,216.889,152.012,212.779,152.013z"/>
		</g>
	</g>
</g>
<g id="Calque_1_-_copie">
	<g>
		<rect x="17.725" y="172.135" fill="#FFD6B0" width="200.555" height="26.26"/>
		<path fill="#F8D0AB" d="M118,7.806c-55.379,0-100.275,44.896-100.275,100.278h200.555C218.279,52.703,173.385,7.806,118,7.806z"/>
		<path fill="#68533E" d="M218.279,160.665c0,6.334-5.137,11.471-11.471,11.471H29.193c-6.334,0-11.469-5.137-11.469-11.471v-8.084
			c0-6.334,5.135-11.471,11.469-11.471h177.615c6.334,0,11.471,5.137,11.471,11.471V160.665z"/>
		<path fill="#615041" d="M218.279,127.639c0,6.334-5.137,11.471-11.471,11.471H29.193c-6.334,0-11.469-5.137-11.469-11.471v-8.084
			c0-6.334,5.135-11.471,11.469-11.471h177.615c6.334,0,11.471,5.137,11.471,11.471V127.639z"/>
		<polygon fill="#E3BA71" points="96.971,141.11 204.734,141.11 150.85,194.993 		"/>
		<g>
			<path fill="#7BA35F" d="M212.779,152.013c-5.053,0.001-8.555-2.692-12.004-5.953c-2.949-2.789-5.064-4.81-10.418-4.661
				l-0.152,0.002c-3.031,0-6.199,1.348-9.867,2.908c-4.465,1.899-9.523,4.051-15.506,4.081c-3.117,0.132-6.275,0.441-9.33,0.741
				c-8.885,0.871-18.064,1.771-27.195-1.564c-5.777-1.955-9.354-3.344-11.724-4.351c-1.243-0.527-2.789-1.054-3.106-1.054
				c-0.001,0-0.001,0-0.002,0c-0.589,0-2.564,0.544-4.85,1.317c-2.333,0.79-5.528,1.808-9.997,3.161l-0.137,0.007
				c-9.993,2.758-14.731,2.934-22.581,3.252c-2.753,0.111-5.874,0.229-9.837,0.486c-8.255,0.65-16.168-2.194-23.155-4.704
				c-12.002-4.309-18.573-6.194-25.171,1.671l-8.75-7.343c12.021-14.329,26.304-9.201,37.781-5.081
				c6.477,2.325,12.591,4.524,18.476,4.058c4.181-0.271,7.375-0.4,10.193-0.516c7.489-0.303,11.258-0.456,19.938-2.848
				c4.256-1.29,7.329-2.331,9.576-3.092c7.776-2.635,9.338-2.824,16.088,0.042c2.354,0.999,5.577,2.368,10.985,4.196l0.143,0.051
				c6.697,2.464,13.885,1.76,22.211,0.943c3.25-0.318,6.609-0.647,10.084-0.789l0.234-0.006c3.711,0,7.33-1.539,11.162-3.17
				c4.393-1.869,8.934-3.801,14.26-3.819c10.018-0.233,15.117,4.585,18.498,7.783c2.016,1.907,2.938,2.692,3.961,2.788
				c1.104,0.104,3.873-0.343,10.006-4.488l6.396,9.462C222.025,150.231,216.889,152.012,212.779,152.013z"/>
		</g>
	</g>
</g>
</svg>
