<?xml version="1.0" encoding="utf-8"?>
<!-- Generator: Adobe Illustrator 15.1.0, SVG Export Plug-In . SVG Version: 6.00 Build 0)  -->
<!DOCTYPE svg PUBLIC "-//W3C//DTD SVG 1.1//EN" "http://www.w3.org/Graphics/SVG/1.1/DTD/svg11.dtd">
<svg version="1.1" xmlns="http://www.w3.org/2000/svg" xmlns:xlink="http://www.w3.org/1999/xlink" x="0px" y="0px" width="70px"
	 height="70px" viewBox="0 0 70 70" enable-background="new 0 0 70 70" xml:space="preserve">
<g id="Calque_1">
	<path display="none" d="M35,16.346C30.095,3.033,5.41,5.01,5.41,25.144c0,10.029,7.544,23.38,29.59,36.981
		c22.043-13.602,29.59-26.952,29.59-36.981C64.59,5.127,39.932,2.953,35,16.346z"/>
	<g display="none">
		<path display="inline" d="M36.586,16.356l-2.297,3.742l3.461,5.958l-4.996,9.332l3.384,8.122l-1.692,5.445L35.5,61.811
			c22.109-12.729,30.004-25.684,30.352-35.629C66.55,6.177,41.982,3.144,36.586,16.356z"/>
		<path display="inline" d="M34.851,43.493l-3.943-7.867l4.332-9.658l-3.867-5.702l2.03-3.894C28.036,3.24,3.436,6.077,4.138,26.199
			C4.488,36.222,12.494,49.301,35,62.125c0.167-0.11,0.324-0.222,0.489-0.332l-1.947-12.75L34.851,43.493z"/>
	</g>
	<g display="none">
		<path display="inline" fill="none" d="M37.891,30.278l-1.133,2.72c-0.561-0.234-1.152-0.349-1.758-0.368V40h2.5v10.641l10,7.211
			V47.5H50v10.914l10-6.197V13.98l-10,6.198V25h-2.5v-4.82l-10-7.211V22.5H35v7.175C35.997,29.694,36.971,29.893,37.891,30.278z
			 M48.436,31.924l3.236,3.178l3.18-3.237l1.77,1.756l-3.182,3.234l3.24,3.184l-1.756,1.77l-3.236-3.186l-3.193,3.244l-1.758-1.758
			l3.186-3.238l-3.242-3.189L48.436,31.924z M40.41,31.645l4.15,2.363l-1.459,2.558l-4.148-2.363L40.41,31.645z"/>
		<polygon display="inline" fill="#010202" points="46.736,40.109 48.494,41.867 51.688,38.623 54.924,41.809 56.68,40.039 
			53.439,36.855 56.621,33.621 54.852,31.865 51.672,35.102 48.436,31.924 46.68,33.682 49.922,36.871 		"/>
		
			<rect x="39.369" y="32.634" transform="matrix(0.869 0.4948 -0.4948 0.869 22.3465 -16.194)" display="inline" fill="#010202" width="4.776" height="2.944"/>
		<polygon display="inline" fill="#010202" points="48.863,15 35,5 35,22.5 37.5,22.5 37.5,12.969 47.5,20.18 47.5,25 50,25 
			50,20.178 60,13.98 60,52.217 50,58.414 50,47.5 47.5,47.5 47.5,57.852 37.5,50.641 37.5,40 35,40 35,55 48.863,65 65,55 65,5 		
			"/>
		<path display="inline" fill="#010202" d="M37.891,30.278c-0.92-0.385-1.894-0.583-2.891-0.603v2.955
			c0.605,0.019,1.197,0.133,1.758,0.368L37.891,30.278z"/>
		<path display="inline" fill="#010202" d="M34.848,29.668c-0.918,0.002-1.823,0.161-2.688,0.473l1.004,2.769
			c0.542-0.195,1.109-0.295,1.684-0.295c0.051,0,0.101,0.014,0.152,0.015v-2.955C34.949,29.674,34.899,29.668,34.848,29.668z"/>
		<polygon display="inline" fill="#010202" points="32.5,40 32.5,50.641 22.5,57.852 22.5,45 20,45 20,58.414 10,52.217 10,13.98 
			20,20.178 20,27.5 22.5,27.5 22.5,20.18 32.5,12.969 32.5,22.5 35,22.5 35,5 21.138,15 5,5 5,55 21.138,65 35,55 35,40 		"/>
		<polygon display="inline" fill="#010202" points="25.449,33.989 26.963,36.52 31.06,34.062 29.546,31.539 		"/>
		<circle display="inline" fill="#010202" cx="14.922" cy="35.01" r="2.422"/>
		<path display="inline" fill="#010202" d="M21.426,35.582c-0.586,0-1.162-0.103-1.714-0.308l-1.019,2.764
			c0.879,0.322,1.8,0.488,2.732,0.488c1.037,0,2.046-0.197,3.003-0.594l-1.118-2.721C22.71,35.454,22.075,35.582,21.426,35.582z"/>
	</g>
	<path display="none" fill="#010202" d="M64.875,55.384L44.176,34.948l20.412-20.619l-9.204-9.204L34.94,25.833L14.252,5.411
		l-9.127,9.127L25.84,35.052L5.412,55.748l9.125,9.127l20.507-20.709L55.67,64.588L64.875,55.384z"/>
	<path display="none" fill="#010202" d="M56.005,63.703l-0.009-7.827l7.806,0.002l0.019-3.503l-7.827,0.01l-0.011-7.82l-3.471-0.019
		l-0.004,7.844L44.683,52.4l-0.019,3.469l7.841,0.004l-0.003,7.812L56.005,63.703z"/>
	<g display="none">
		<rect x="5" y="13.688" display="inline" fill="#010202" width="50" height="9"/>
		<rect x="5" y="25.667" display="inline" fill="#010202" width="57.875" height="9"/>
		<rect x="5" y="37.646" display="inline" fill="#010202" width="41.25" height="9"/>
		<rect x="5" y="49.625" display="inline" fill="#010202" width="34.625" height="9"/>
		<rect x="45.914" y="52.44" display="inline" fill="#010202" width="15.586" height="3.429"/>
	</g>
	<g>
		<rect x="5" y="13.688" fill="#010202" width="50" height="9"/>
		<rect x="5" y="25.667" fill="#010202" width="57.875" height="9"/>
		<rect x="5" y="37.646" fill="#010202" width="41.25" height="9"/>
		<rect x="5" y="49.625" fill="#010202" width="34.625" height="9"/>
		<rect x="45.914" y="52.44" display="none" fill="#010202" width="15.586" height="3.429"/>
	</g>
	<g display="none">
		<rect x="5" y="13.688" display="inline" fill="#010202" width="50" height="9"/>
		<rect x="5" y="25.667" display="inline" fill="#010202" width="57.875" height="9"/>
		<rect x="5" y="37.646" display="inline" fill="#010202" width="41.25" height="9"/>
		<rect x="5" y="49.625" display="inline" fill="#010202" width="34.625" height="9"/>
		<rect x="45.914" y="52.44" display="inline" fill="#010202" width="15.586" height="3.429"/>
		<rect x="51.992" y="46.361" display="inline" fill="#010202" width="3.429" height="15.586"/>
	</g>
</g>
<g id="repères">
</g>
</svg>
